<svg width="60" height="60" viewBox="0 0 60 60" fill="none" xmlns="http://www.w3.org/2000/svg">
<path d="M57.2315 44.6236C56.8904 43.7263 56.2539 42.972 55.4269 42.4847C54.5998 41.9975 53.6315 41.8064 52.6813 41.9429L39.9506 43.8283C40.0585 42.9054 39.8499 41.9732 39.3591 41.1843C38.8683 40.3953 38.1242 39.7963 37.2486 39.4853L26.7707 36.0526C24.9544 35.4621 22.9969 35.467 21.1836 36.0667L13.6601 38.5745C13.4773 37.7393 13.0149 36.9916 12.3493 36.455C11.6838 35.9184 10.8549 35.625 10 35.6236H6.25C5.25577 35.6247 4.30257 36.0201 3.59955 36.7231C2.89652 37.4261 2.50109 38.3793 2.5 39.3736V53.1235C2.50109 54.1178 2.89652 55.071 3.59955 55.774C4.30257 56.477 5.25577 56.8724 6.25 56.8735H10C10.8191 56.8709 11.6147 56.5997 12.2649 56.1016C12.9151 55.6035 13.3841 54.9059 13.5999 54.1158L18.9252 53.2284C19.5953 53.1156 20.2839 53.2191 20.8912 53.5238L26.9606 56.559C28.0054 57.0846 29.144 57.3979 30.3106 57.4809C31.4772 57.5639 32.6487 57.4148 33.7574 57.0424L54.6259 50.0856C55.1619 49.907 55.6564 49.6221 56.0797 49.2481C56.5031 48.874 56.8466 48.4184 57.0899 47.9085C57.3331 47.3986 57.471 46.8449 57.4954 46.2805C57.5197 45.716 57.4299 45.1525 57.2315 44.6236ZM11.25 53.1235C11.2496 53.4549 11.1178 53.7726 10.8834 54.007C10.6491 54.2413 10.3314 54.3731 10 54.3736H6.25C5.9186 54.3731 5.6009 54.2413 5.36657 54.007C5.13223 53.7726 5.0004 53.4549 4.99996 53.1235V39.3736C5.0004 39.0422 5.13223 38.7245 5.36657 38.4901C5.6009 38.2558 5.9186 38.124 6.25 38.1235H10C10.3314 38.124 10.6491 38.2558 10.8834 38.4901C11.1178 38.7245 11.2496 39.0422 11.25 39.3736V53.1235ZM54.8334 46.8314C54.7355 47.0385 54.5965 47.2235 54.4248 47.3751C54.2531 47.5267 54.0524 47.6418 53.8348 47.7133L32.967 54.6702C32.1697 54.9384 31.3271 55.0458 30.488 54.986C29.6488 54.9263 28.8299 54.7007 28.0786 54.3222L22.0093 51.2871C20.9299 50.7446 19.7055 50.5607 18.5144 50.7622L13.75 51.556V41.1798L21.9745 38.4384C23.2782 38.0066 24.6858 38.0029 25.9918 38.428L36.4319 41.8478C36.8114 41.9855 37.1254 42.2609 37.3115 42.6192C37.4976 42.9775 37.5424 43.3926 37.4369 43.7824C37.3314 44.1721 37.0834 44.508 36.7419 44.7235C36.4004 44.939 35.9905 45.0184 35.5933 44.946L24.2017 42.8751C23.8767 42.8188 23.5427 42.8931 23.2723 43.0819C23.0018 43.2708 22.817 43.5589 22.7581 43.8834C22.6992 44.2079 22.7709 44.5426 22.9576 44.8145C23.1443 45.0864 23.431 45.2734 23.755 45.3349L35.1456 47.4058C35.7195 47.5107 36.3092 47.4914 36.875 47.3493C37.4409 47.2071 37.9697 46.9453 38.4258 46.5817L53.0473 44.4158C53.4323 44.3597 53.8249 44.4367 54.1601 44.6342C54.4953 44.8317 54.753 45.1377 54.8905 45.5017C54.9718 45.7156 55.0086 45.9438 54.9988 46.1725C54.989 46.4011 54.9327 46.6253 54.8334 46.8315V46.8314Z" fill="#000034"/>
<path d="M30.313 20.9338C30.4748 20.9955 30.6225 21.051 30.7452 21.105C30.9241 21.1834 31.1297 21.2628 31.3507 21.3474C32.5776 21.8161 33.1251 22.1253 33.1251 22.7185C33.1251 22.9782 32.8479 23.3813 32.3188 23.6493C31.9438 23.8388 30.5903 24.3579 28.8654 23.0902C28.5983 22.8938 28.2642 22.8116 27.9365 22.8617C27.6087 22.9117 27.3143 23.0899 27.118 23.357C26.9216 23.6241 26.8394 23.9582 26.8895 24.2859C26.9395 24.6136 27.1177 24.9081 27.3848 25.1044C28.161 25.6833 29.053 26.088 29.9999 26.2908V27.5002C30.0031 27.8296 30.1362 28.1445 30.3703 28.3763C30.6044 28.6081 30.9205 28.7381 31.2499 28.7381C31.5793 28.7381 31.8955 28.6081 32.1295 28.3763C32.3636 28.1445 32.4967 27.8296 32.4999 27.5002V26.2252C32.8265 26.1424 33.1438 26.0268 33.4471 25.8801C34.7905 25.2005 35.6249 23.9885 35.6249 22.7185C35.6249 20.3044 33.4246 19.4635 32.2423 19.0118C32.0646 18.9437 31.8981 18.8809 31.7547 18.8178C31.5972 18.7482 31.4086 18.6759 31.2005 18.5969C30.0169 18.1473 29.375 17.7921 29.375 17.2041C29.375 16.9444 29.6521 16.5413 30.1812 16.2733C30.5562 16.0838 31.9097 15.5646 33.6346 16.8324C33.9018 17.0262 34.2349 17.1065 34.5611 17.0557C34.8873 17.0048 35.1801 16.827 35.3757 16.561C35.5712 16.295 35.6536 15.9625 35.6048 15.636C35.556 15.3094 35.38 15.0155 35.1153 14.8183C34.3389 14.2394 33.4468 13.8348 32.4999 13.632V12.5004C32.5015 12.3353 32.4703 12.1714 32.4082 12.0183C32.3461 11.8653 32.2543 11.7261 32.1381 11.6087C32.0219 11.4913 31.8835 11.3982 31.7311 11.3346C31.5786 11.271 31.4151 11.2383 31.2499 11.2383C31.0847 11.2383 30.9212 11.271 30.7687 11.3346C30.6163 11.3982 30.478 11.4913 30.3617 11.6087C30.2455 11.7261 30.1537 11.8653 30.0916 12.0183C30.0295 12.1714 29.9983 12.3353 29.9999 12.5004V13.6909C29.6731 13.7758 29.3558 13.8936 29.0527 14.0425C27.7093 14.7222 26.875 15.9337 26.875 17.2041C26.8749 19.6282 29.1967 20.5102 30.313 20.9338Z" fill="#000034"/>
<path d="M31.2501 33.7499C33.9696 33.7499 36.628 32.9435 38.8891 31.4326C41.1503 29.9217 42.9126 27.7742 43.9533 25.2618C44.994 22.7493 45.2663 19.9846 44.7357 17.3174C44.2052 14.6502 42.8956 12.2002 40.9726 10.2772C39.0496 8.35428 36.5996 7.04474 33.9324 6.5142C31.2652 5.98366 28.5005 6.25597 25.9881 7.29667C23.4756 8.33738 21.3281 10.0997 19.8173 12.3609C18.3064 14.6221 17.5 17.2805 17.5 20C17.5041 23.6454 18.9541 27.1404 21.5319 29.7181C24.1096 32.2959 27.6046 33.7458 31.2501 33.7499ZM31.2501 8.74997C33.4751 8.74997 35.6502 9.40977 37.5002 10.6459C39.3503 11.8821 40.7922 13.6391 41.6437 15.6948C42.4952 17.7504 42.718 20.0124 42.2839 22.1947C41.8498 24.377 40.7784 26.3816 39.205 27.9549C37.6317 29.5283 35.6271 30.5997 33.4448 31.0338C31.2626 31.4679 29.0006 31.2451 26.9449 30.3936C24.8892 29.5421 23.1322 28.1002 21.896 26.2501C20.6599 24.4001 20.0001 22.225 20.0001 20C20.0035 17.0173 21.1899 14.1578 23.2989 12.0488C25.4079 9.93974 28.2674 8.75338 31.2501 8.74997Z" fill="#000034"/>
<path d="M50.3666 38.3842C50.4826 38.5003 50.6204 38.5924 50.772 38.6553C50.9237 38.7181 51.0862 38.7504 51.2503 38.7504C51.4145 38.7504 51.577 38.7181 51.7287 38.6553C51.8803 38.5924 52.0181 38.5003 52.1341 38.3842L55.8841 34.6342C56.1141 34.3989 56.242 34.0825 56.2401 33.7535C56.2382 33.4245 56.1066 33.1095 55.874 32.8768C55.6413 32.6442 55.3264 32.5127 54.9974 32.5108C54.6684 32.5089 54.3519 32.6368 54.1166 32.8667L52.5003 34.4828V22.5004C52.5019 22.3353 52.4708 22.1714 52.4087 22.0183C52.3466 21.8653 52.2548 21.7261 52.1385 21.6087C52.0223 21.4913 51.884 21.3982 51.7315 21.3346C51.5791 21.271 51.4155 21.2383 51.2503 21.2383C51.0852 21.2383 50.9216 21.271 50.7692 21.3346C50.6167 21.3982 50.4784 21.4913 50.3622 21.6087C50.2459 21.7261 50.1541 21.8653 50.092 22.0183C50.0299 22.1714 49.9988 22.3353 50.0004 22.5004V34.4828L48.3841 32.8666C48.2685 32.7483 48.1307 32.6542 47.9784 32.5896C47.8262 32.525 47.6627 32.4912 47.4974 32.4903C47.332 32.4893 47.1681 32.5212 47.0152 32.584C46.8622 32.6469 46.7233 32.7394 46.6063 32.8563C46.4894 32.9733 46.3968 33.1122 46.334 33.2652C46.2712 33.4181 46.2393 33.582 46.2403 33.7474C46.2412 33.9127 46.275 34.0763 46.3396 34.2285C46.4042 34.3807 46.4983 34.5186 46.6166 34.6341L50.3666 38.3842Z" fill="#000034"/>
<path d="M48.7499 12.4997C49.0815 12.4997 49.3994 12.368 49.6338 12.1336C49.8683 11.8991 50 11.5812 50 11.2497V3.74965C49.9968 3.42024 49.8637 3.10539 49.6296 2.87358C49.3955 2.64176 49.0794 2.51172 48.75 2.51172C48.4205 2.51172 48.1044 2.64176 47.8704 2.87358C47.6363 3.10539 47.5032 3.42024 47.5 3.74965V11.2497C47.5 11.5812 47.6317 11.8991 47.8661 12.1335C48.1005 12.3679 48.4184 12.4997 48.7499 12.4997Z" fill="#000034"/>
<path d="M53.75 17.5005C54.0815 17.5005 54.3995 17.3688 54.6339 17.1343C54.8683 16.8999 55 16.582 55 16.2504V8.75042C55.0016 8.58526 54.9705 8.42141 54.9084 8.26835C54.8463 8.11529 54.7544 7.97606 54.6382 7.8587C54.522 7.74134 54.3837 7.64818 54.2312 7.5846C54.0788 7.52102 53.9152 7.48828 53.75 7.48828C53.5849 7.48828 53.4213 7.52102 53.2689 7.5846C53.1164 7.64818 52.9781 7.74134 52.8619 7.8587C52.7456 7.97606 52.6538 8.11529 52.5917 8.26835C52.5296 8.42141 52.4985 8.58526 52.5001 8.75042V16.2504C52.5001 16.5819 52.6317 16.8999 52.8661 17.1343C53.1005 17.3687 53.4185 17.5004 53.75 17.5005Z" fill="#000034"/>
<path d="M12.5 15.0005C12.8315 15.0005 13.1495 14.8688 13.3839 14.6343C13.6183 14.3999 13.75 14.082 13.75 13.7504V6.25042C13.7516 6.08526 13.7205 5.92141 13.6584 5.76835C13.5963 5.61529 13.5044 5.47606 13.3882 5.3587C13.272 5.24134 13.1337 5.14818 12.9812 5.0846C12.8288 5.02102 12.6652 4.98828 12.5 4.98828C12.3349 4.98828 12.1713 5.02102 12.0189 5.0846C11.8664 5.14818 11.7281 5.24134 11.6119 5.3587C11.4956 5.47606 11.4038 5.61529 11.3417 5.76835C11.2796 5.92141 11.2485 6.08526 11.2501 6.25042V13.7504C11.2501 14.0819 11.3817 14.3999 11.6161 14.6343C11.8505 14.8687 12.1685 15.0004 12.5 15.0005Z" fill="#000034"/>
<path d="M7.49992 22.4997C7.83145 22.4997 8.14941 22.368 8.38383 22.1336C8.61826 21.8991 8.74996 21.5812 8.74996 21.2497V13.7497C8.74677 13.4202 8.61367 13.1054 8.3796 12.8736C8.14553 12.6418 7.82942 12.5117 7.49998 12.5117C7.17055 12.5117 6.85443 12.6418 6.62036 12.8736C6.38629 13.1054 6.25319 13.4202 6.25 13.7497V21.2497C6.25 21.5812 6.38168 21.8991 6.61609 22.1335C6.85049 22.3679 7.16841 22.4997 7.49992 22.4997Z" fill="#000034"/>
</svg>
